<svg id="Capa_1" enable-background="new 0 0 484.371 484.371" height="512" viewBox="0 0 484.371 484.371" width="512" xmlns="http://www.w3.org/2000/svg"><g><path d="m484.371 282.306v-80.24l-59.022-12.535c-3.94-13.784-9.464-27.065-16.463-39.577l32.92-50.623-56.748-56.748-50.623 32.92c-12.504-7.02-25.794-12.536-39.594-16.433l-12.535-59.07h-80.24l-12.535 59.022c-13.784 3.94-27.065 9.464-39.577 16.463l-50.623-32.92-56.748 56.749 32.92 50.623c-6.999 12.512-12.523 25.793-16.463 39.577l-59.04 12.552v80.24l59.07 12.535c3.885 13.792 9.387 27.076 16.392 39.577l-32.92 50.623 56.748 56.748 50.623-32.92c12.512 6.999 25.793 12.523 39.577 16.463l12.576 59.04h80.24l12.535-59.07c13.782-3.916 27.063-9.416 39.577-16.392l50.623 32.92 56.748-56.748-32.92-50.623c6.993-12.525 12.508-25.82 16.433-39.618zm-242.15 64.321c-57.681.02-104.457-46.724-104.477-104.406-.02-57.681 46.724-104.457 104.406-104.477 57.681-.02 104.457 46.724 104.477 104.406.01 57.677-46.729 104.448-104.406 104.477z" fill="#575b6d"/></g></svg>