<svg width="512" height="512" viewBox="0 0 512 512" fill="none" xmlns="http://www.w3.org/2000/svg">
<path d="M123.856 71.638H105.66C108.397 51.375 119.601 50.357 124.757 49.888C129.908 49.419 133.851 45.101 133.851 39.929V10.004C133.851 7.25499 132.719 4.62599 130.721 2.73699C128.723 0.847991 126.033 -0.131009 123.29 0.0199909C91.68 1.79799 54 17.758 54 83.696V135.736C54 144.423 61.067 151.49 69.754 151.49H123.857C132.544 151.49 139.611 144.422 139.61 135.735V87.392C139.61 78.705 132.543 71.638 123.856 71.638ZM119.611 131.489H74V83.696C74 37.686 94.461 24.836 113.851 21.209V31.723C100.46 35.799 85.048 47.837 85.048 81.638C85.048 87.161 89.525 91.638 95.048 91.638H119.611V131.489Z" fill="white"/>
<path d="M226.091 71.638H207.894C210.631 51.375 221.835 50.357 226.991 49.888C232.142 49.419 236.085 45.101 236.085 39.929V10.004C236.085 7.25499 234.953 4.62599 232.955 2.73699C230.957 0.847991 228.265 -0.131009 225.524 0.0199909C193.914 1.79799 156.234 17.758 156.234 83.696V135.736C156.234 144.423 163.301 151.49 171.988 151.49H226.091C234.778 151.49 241.846 144.422 241.845 135.734V87.392C241.845 78.705 234.778 71.638 226.091 71.638ZM221.845 131.49H176.234V83.696C176.234 37.686 196.695 24.836 216.085 21.209V31.723C202.694 35.799 187.282 47.837 187.282 81.638C187.282 87.161 191.759 91.638 197.282 91.638H221.845V131.49Z" fill="white"/>
<path d="M285.07 80.795C283.21 78.935 280.63 77.865 278 77.865C275.37 77.865 272.79 78.935 270.93 80.795C269.07 82.655 268 85.235 268 87.865C268 90.495 269.07 93.075 270.93 94.935C272.79 96.795 275.37 97.865 278 97.865C280.63 97.865 283.21 96.795 285.07 94.935C286.93 93.075 288 90.495 288 87.865C288 85.235 286.93 82.655 285.07 80.795Z" fill="white"/>
<path d="M334.267 77.864H321.666C316.143 77.864 311.666 82.341 311.666 87.864C311.666 93.387 316.143 97.864 321.666 97.864H334.267C421.241 97.864 492 168.623 492 255.597C492 329.829 439.352 394.749 366.813 409.962C362.182 410.934 358.866 415.018 358.866 419.749V477.853L297.272 416.259C295.397 414.384 292.853 413.33 290.201 413.33H177.733C90.759 413.33 20 342.571 20 255.597C20 228.792 26.843 202.323 39.79 179.049C42.476 174.223 40.739 168.134 35.913 165.449C31.086 162.763 24.997 164.5 22.313 169.326C7.715 195.565 0 225.397 0 255.597C0 353.6 79.73 433.33 177.733 433.33H286.059L361.795 509.066C363.708 510.979 366.265 511.995 368.868 511.995C370.156 511.995 371.456 511.746 372.693 511.233C376.429 509.686 378.866 506.04 378.866 501.995V427.674C415.049 418.298 447.766 397.435 471.673 368.331C497.678 336.674 512 296.638 512 255.597C512 157.595 432.27 77.865 334.267 77.864Z" fill="white"/>
<path d="M379.064 177.492H132.937C127.414 177.492 122.937 181.969 122.937 187.492C122.937 193.015 127.414 197.492 132.937 197.492H379.063C384.586 197.492 389.064 193.015 389.064 187.492C389.064 181.969 384.587 177.492 379.064 177.492Z" fill="white"/>
<path d="M379.064 230.825H132.937C127.414 230.825 122.937 235.302 122.937 240.825C122.937 246.348 127.414 250.825 132.937 250.825H379.063C384.586 250.825 389.064 246.348 389.064 240.825C389.064 235.302 384.587 230.825 379.064 230.825Z" fill="white"/>
<path d="M379.064 284.158H132.937C127.414 284.158 122.937 288.636 122.937 294.158C122.937 299.68 127.414 304.158 132.937 304.158H379.063C384.586 304.158 389.064 299.68 389.064 294.158C389.064 288.636 384.587 284.158 379.064 284.158Z" fill="white"/>
<path d="M379.063 337.492H247.871C242.348 337.492 237.871 341.97 237.871 347.492C237.871 353.014 242.348 357.492 247.871 357.492H379.063C384.586 357.492 389.063 353.014 389.063 347.492C389.063 341.97 384.586 337.492 379.063 337.492Z" fill="white"/>
<path d="M191.607 337.491H191.446C185.923 337.491 181.446 341.969 181.446 347.491C181.446 353.013 185.923 357.491 191.446 357.491H191.607C197.13 357.491 201.607 353.013 201.607 347.491C201.607 341.969 197.13 337.491 191.607 337.491Z" fill="white"/>
</svg>
